<svg xmlns="http://www.w3.org/2000/svg" width="1200" height="630" viewBox="0 0 1200 630">
  <rect width="1200" height="630" fill="#FDF6EC"/>
  <rect x="0" y="0" width="1200" height="4" fill="#6B9E7B"/>
  <rect x="0" y="626" width="1200" height="4" fill="#6B9E7B"/>

  <!-- Flower icon -->
  <g transform="translate(600, 220)" stroke="#6B9E7B" stroke-width="2.5" stroke-linecap="round" fill="none">
    <path d="M0 24V0"/>
    <path d="M0 0C0 -8 -8 -16 -16 -16C-16 -8 -8 0 0 0Z"/>
    <path d="M0 0C0 -8 8 -16 16 -16C16 -8 8 0 0 0Z"/>
    <path d="M0 8C0 2 -6 -4 -12 -4C-12 2 -6 8 0 8Z"/>
    <path d="M0 8C0 2 6 -4 12 -4C12 2 6 8 0 8Z"/>
    <circle cx="0" cy="-18" r="3"/>
  </g>

  <!-- Title -->
  <text x="600" y="310" text-anchor="middle" font-family="Georgia, 'DM Serif Display', serif" font-size="72" fill="#2C1810" letter-spacing="-1">BloomWave</text>

  <!-- Divider -->
  <line x1="540" y1="340" x2="660" y2="340" stroke="#6B9E7B" stroke-width="1" opacity="0.5"/>
  <circle cx="600" cy="340" r="2.5" fill="#6B9E7B" opacity="0.5"/>

  <!-- Tagline -->
  <text x="600" y="380" text-anchor="middle" font-family="system-ui, 'DM Sans', sans-serif" font-size="24" fill="#8B7355">Apps for the curious, the mystical, and the beautifully weird.</text>

  <!-- URL -->
  <text x="600" y="560" text-anchor="middle" font-family="system-ui, 'DM Sans', sans-serif" font-size="18" fill="#A08B74">bloomwave.app</text>
</svg>
